<svg width="94" height="109" viewBox="0 0 94 109" fill="none" xmlns="http://www.w3.org/2000/svg">
<path d="M0.0300098 83.53V60.51C0.53001 60.6 11.71 66.45 14 67.83V75.06C14.76 75.47 15.48 75.86 16.21 76.25C26.2 81.56 36.19 86.87 46.18 92.18C46.58 92.39 46.87 92.42 47.28 92.2C57.71 86.64 68.15 81.09 78.6 75.55C79.07 75.3 79.27 75.04 79.26 74.49C79.23 71.26 79.25 68.03 79.25 64.8V64.12C63.67 55.84 48.1 47.56 32.43 39.23C37.45 36.56 42.4 33.93 47.35 31.3C48.53 31.93 49.69 32.54 50.85 33.16C64.72 40.53 78.59 47.9 92.46 55.28C93.36 55.76 93.23 55.46 93.23 56.58C93.23 65.33 93.23 74.09 93.23 82.84V83.62C93.04 83.73 92.86 83.85 92.68 83.94C81.73 89.76 70.78 95.57 59.83 101.38C55.71 103.57 51.57 105.75 47.46 107.96C46.93 108.24 46.54 108.25 46.01 107.97C37.79 103.58 29.56 99.21 21.33 94.84C19.02 93.61 16.72 92.39 14.41 91.17C9.80001 88.72 5.18001 86.28 0.57001 83.83C0.38001 83.73 0.20001 83.62 0.0100098 83.51L0.0300098 83.53Z" fill="white"/>
<path d="M93.24 47.0601C92.44 46.6401 91.77 46.2901 91.09 45.9301C87.34 43.9401 83.6 41.9301 79.84 39.9601C79.37 39.7101 79.23 39.4301 79.24 38.9201C79.27 37.1401 79.24 35.3501 79.26 33.5701C79.26 33.2101 79.17 33.0001 78.83 32.8201C68.18 27.1701 57.53 21.5101 46.88 15.8501C46.82 15.8201 46.76 15.8001 46.66 15.7501C35.8 21.5201 24.91 27.3101 14.02 33.1001V35.3701C14.02 37.7901 14.04 40.2101 14.01 42.6401C14.01 43.1401 14.17 43.3901 14.6 43.6201C25.52 49.4101 36.43 55.2101 47.34 61.0001C52.06 63.5101 56.79 66.0201 61.51 68.5301C61.58 68.5701 61.65 68.6201 61.77 68.7001C61.62 68.8101 61.5 68.9101 61.36 68.9801C56.69 71.4601 52.02 73.9301 47.36 76.4301C46.93 76.6601 46.65 76.5101 46.31 76.3301C41.59 73.8201 36.86 71.3001 32.14 68.7901C26.24 65.6501 20.33 62.5101 14.43 59.3701C9.82 56.9201 5.2 54.4801 0.58 52.0401C0.2 51.8501 0 51.6401 0 51.1401C0.02 42.4901 0.01 33.8401 0.01 25.2001V24.7201C0.19 24.6201 0.36 24.5001 0.55 24.4101C15.75 16.3201 30.96 8.24009 46.15 0.150094C46.54 -0.0599064 46.82 -0.0399064 47.2 0.150094C57.77 5.78009 68.34 11.4001 78.91 17.0201C83.5 19.4601 88.09 21.9101 92.69 24.3301C93.11 24.5501 93.24 24.8101 93.24 25.2601C93.23 32.2701 93.24 39.2801 93.24 46.3001V47.0601Z" fill="white"/>
</svg>
